<?xml version="1.0" encoding="UTF-8"?>
<svg data-bbox="0 0 199.9 229.023" viewBox="0 0 199.9 229.023" height="305.364" width="266.533" xmlns="http://www.w3.org/2000/svg" data-type="shape">
    <g>
        <path d="M33 33L0 66h21.8c13 0 21.6.4 21.3.9-1.3 2.1 1.5 15.9 4.5 21.9 3.8 7.8 12.6 17 19.8 20.6 6.3 3.2 16.4 5.6 24.1 5.6H97l-.3 7.9c-.3 6.5 0 8.6 1.8 12.1 1.2 2.3 1.9 4.4 1.6 4.7-.2.3-4.2.9-8.8 1.4-14.2 1.6-25.5 4.8-36 10.2-11.2 5.7-17.4 11.6-21.7 20.7-2.2 4.9-2.5 6.8-2.6 17 0 9.9.3 12.1 2.2 15.5 5.4 10.2 18.7 19.4 33.2 23.1 9.8 2.5 47 1.5 55.8-1.4 12.6-4.3 26.5-12.9 32.2-20.1 1.7-2.1 4.7-7.4 6.8-11.6 3-6.4 3.7-9.2 4.1-15.7.3-4.5-.1-10.4-.7-13.4-1.8-7.7-9.4-18.9-17.5-25.5-11-8.9-20.8-18.3-21.7-20.7-1.5-3.9 1.6-8.5 12.2-18.3 10.9-10.1 14.9-15.7 17.3-23.8 2-6.8 2.1-17.9.2-25.1l-1.5-5.5L167.1 33l13.4-13.5v4.3c0 2.9-.6 4.8-2 6.2-1.9 1.9-2 3.3-2 39s.1 37.1 2 39c2.7 2.7 9.3 2.7 12 0 1.9-1.9 2-3.3 2-39V31.9l-2.5-2.3c-2.2-2.1-2.5-3.1-2.5-9.7v-7.3l6.2-6.3 6.2-6.3H66L33 33zm70.2-4.1c7.3 3.4 13.2 9.8 17.4 18.8 5.1 11 7.2 19.3 7.2 28.8 0 12.4-3.2 18.3-12.8 23.3-7.7 4-15.4 3.7-22.7-.7-9.6-5.8-15.7-16.1-19.4-32.7-4-18.3 1.9-32.9 15.2-37.8 5.4-2 10.2-1.9 15.1.3zm12.6 124.3c5.1 2.7 20 15.5 22.6 19.4 6.2 9.4 6.3 18.7.2 28.4-5.4 8.7-14.1 12.6-30.8 13.7-18.3 1.2-33.6-3.8-43-14-5-5.4-6.7-10.3-6.7-18.8 0-10.8 6-18.6 18.6-24.4 9.6-4.4 34-7.1 39.1-4.3z"/>
    </g>
</svg>
